<mxfile host="app.diagrams.net" modified="2023-08-28T23:50:13.736Z" agent="Mozilla/5.0 (Windows NT 10.0; Win64; x64) AppleWebKit/537.36 (KHTML, like Gecko) Chrome/116.0.0.0 Safari/537.36 Edg/116.0.1938.62" etag="PlEJkillvBVgCA5M9myN" version="21.6.9" type="onedrive">
  <diagram name="Page-1" id="c4acf3e9-155e-7222-9cf6-157b1a14988f">
    <mxGraphModel grid="0" page="0" gridSize="10" guides="1" tooltips="1" connect="1" arrows="1" fold="1" pageScale="1" pageWidth="850" pageHeight="1100" background="none" math="0" shadow="0">
      <root>
        <mxCell id="0" />
        <mxCell id="1" parent="0" />
        <mxCell id="qthTU0_xFXEU9rlKp3dq-17" value="Animal" style="swimlane;fontStyle=1;align=center;verticalAlign=top;childLayout=stackLayout;horizontal=1;startSize=26;horizontalStack=0;resizeParent=1;resizeParentMax=0;resizeLast=0;collapsible=1;marginBottom=0;whiteSpace=wrap;html=1;" vertex="1" parent="1">
          <mxGeometry x="344" y="589" width="160" height="208" as="geometry" />
        </mxCell>
        <mxCell id="qthTU0_xFXEU9rlKp3dq-18" value="-registro: long&lt;br&gt;-nome: String&lt;br&gt;-cor: String&lt;br&gt;-peso: double&lt;br&gt;-raca: String&lt;br&gt;-idade: int" style="text;strokeColor=none;fillColor=none;align=left;verticalAlign=top;spacingLeft=4;spacingRight=4;overflow=hidden;rotatable=0;points=[[0,0.5],[1,0.5]];portConstraint=eastwest;whiteSpace=wrap;html=1;" vertex="1" parent="qthTU0_xFXEU9rlKp3dq-17">
          <mxGeometry y="26" width="160" height="148" as="geometry" />
        </mxCell>
        <mxCell id="qthTU0_xFXEU9rlKp3dq-19" value="" style="line;strokeWidth=1;fillColor=none;align=left;verticalAlign=middle;spacingTop=-1;spacingLeft=3;spacingRight=3;rotatable=0;labelPosition=right;points=[];portConstraint=eastwest;strokeColor=inherit;" vertex="1" parent="qthTU0_xFXEU9rlKp3dq-17">
          <mxGeometry y="174" width="160" height="8" as="geometry" />
        </mxCell>
        <mxCell id="qthTU0_xFXEU9rlKp3dq-20" value="+ method(type): type" style="text;strokeColor=none;fillColor=none;align=left;verticalAlign=top;spacingLeft=4;spacingRight=4;overflow=hidden;rotatable=0;points=[[0,0.5],[1,0.5]];portConstraint=eastwest;whiteSpace=wrap;html=1;" vertex="1" parent="qthTU0_xFXEU9rlKp3dq-17">
          <mxGeometry y="182" width="160" height="26" as="geometry" />
        </mxCell>
        <mxCell id="qthTU0_xFXEU9rlKp3dq-21" value="Cachorro" style="swimlane;fontStyle=1;align=center;verticalAlign=top;childLayout=stackLayout;horizontal=1;startSize=26;horizontalStack=0;resizeParent=1;resizeParentMax=0;resizeLast=0;collapsible=1;marginBottom=0;whiteSpace=wrap;html=1;" vertex="1" parent="1">
          <mxGeometry x="150" y="1020" width="160" height="208" as="geometry" />
        </mxCell>
        <mxCell id="qthTU0_xFXEU9rlKp3dq-22" value="+ enderecoCanil: String" style="text;strokeColor=none;fillColor=none;align=left;verticalAlign=top;spacingLeft=4;spacingRight=4;overflow=hidden;rotatable=0;points=[[0,0.5],[1,0.5]];portConstraint=eastwest;whiteSpace=wrap;html=1;" vertex="1" parent="qthTU0_xFXEU9rlKp3dq-21">
          <mxGeometry y="26" width="160" height="148" as="geometry" />
        </mxCell>
        <mxCell id="qthTU0_xFXEU9rlKp3dq-23" value="" style="line;strokeWidth=1;fillColor=none;align=left;verticalAlign=middle;spacingTop=-1;spacingLeft=3;spacingRight=3;rotatable=0;labelPosition=right;points=[];portConstraint=eastwest;strokeColor=inherit;" vertex="1" parent="qthTU0_xFXEU9rlKp3dq-21">
          <mxGeometry y="174" width="160" height="8" as="geometry" />
        </mxCell>
        <mxCell id="qthTU0_xFXEU9rlKp3dq-24" value="+ method(type): type" style="text;strokeColor=none;fillColor=none;align=left;verticalAlign=top;spacingLeft=4;spacingRight=4;overflow=hidden;rotatable=0;points=[[0,0.5],[1,0.5]];portConstraint=eastwest;whiteSpace=wrap;html=1;" vertex="1" parent="qthTU0_xFXEU9rlKp3dq-21">
          <mxGeometry y="182" width="160" height="26" as="geometry" />
        </mxCell>
        <mxCell id="qthTU0_xFXEU9rlKp3dq-25" value="Cavalo" style="swimlane;fontStyle=1;align=center;verticalAlign=top;childLayout=stackLayout;horizontal=1;startSize=26;horizontalStack=0;resizeParent=1;resizeParentMax=0;resizeLast=0;collapsible=1;marginBottom=0;whiteSpace=wrap;html=1;" vertex="1" parent="1">
          <mxGeometry x="521" y="1020" width="160" height="216" as="geometry" />
        </mxCell>
        <mxCell id="qthTU0_xFXEU9rlKp3dq-26" value="+ enderecoAras: String" style="text;strokeColor=none;fillColor=none;align=left;verticalAlign=top;spacingLeft=4;spacingRight=4;overflow=hidden;rotatable=0;points=[[0,0.5],[1,0.5]];portConstraint=eastwest;whiteSpace=wrap;html=1;" vertex="1" parent="qthTU0_xFXEU9rlKp3dq-25">
          <mxGeometry y="26" width="160" height="156" as="geometry" />
        </mxCell>
        <mxCell id="qthTU0_xFXEU9rlKp3dq-27" value="" style="line;strokeWidth=1;fillColor=none;align=left;verticalAlign=middle;spacingTop=-1;spacingLeft=3;spacingRight=3;rotatable=0;labelPosition=right;points=[];portConstraint=eastwest;strokeColor=inherit;" vertex="1" parent="qthTU0_xFXEU9rlKp3dq-25">
          <mxGeometry y="182" width="160" height="8" as="geometry" />
        </mxCell>
        <mxCell id="qthTU0_xFXEU9rlKp3dq-28" value="+ method(type): type" style="text;strokeColor=none;fillColor=none;align=left;verticalAlign=top;spacingLeft=4;spacingRight=4;overflow=hidden;rotatable=0;points=[[0,0.5],[1,0.5]];portConstraint=eastwest;whiteSpace=wrap;html=1;" vertex="1" parent="qthTU0_xFXEU9rlKp3dq-25">
          <mxGeometry y="190" width="160" height="26" as="geometry" />
        </mxCell>
        <mxCell id="GY0bQCvHX98aE-aFZ2lr-2" value="Extends" style="endArrow=block;endSize=16;endFill=0;html=1;rounded=0;" edge="1" parent="1" source="qthTU0_xFXEU9rlKp3dq-21" target="qthTU0_xFXEU9rlKp3dq-20">
          <mxGeometry x="-0.0125" y="-2" width="160" relative="1" as="geometry">
            <mxPoint x="206" y="968.5" as="sourcePoint" />
            <mxPoint x="366" y="968.5" as="targetPoint" />
            <mxPoint as="offset" />
          </mxGeometry>
        </mxCell>
        <mxCell id="GY0bQCvHX98aE-aFZ2lr-3" value="Extends" style="endArrow=block;endSize=16;endFill=0;html=1;rounded=0;" edge="1" parent="1" source="qthTU0_xFXEU9rlKp3dq-25" target="qthTU0_xFXEU9rlKp3dq-20">
          <mxGeometry width="160" relative="1" as="geometry">
            <mxPoint x="573" y="875" as="sourcePoint" />
            <mxPoint x="733" y="875" as="targetPoint" />
          </mxGeometry>
        </mxCell>
      </root>
    </mxGraphModel>
  </diagram>
</mxfile>
